<mxfile host="65bd71144e">
    <diagram id="Lh2V6kkWJeTsns9pRhTM" name="Page-1">
        <mxGraphModel dx="1064" dy="836" grid="1" gridSize="10" guides="1" tooltips="1" connect="1" arrows="1" fold="1" page="1" pageScale="1" pageWidth="500" pageHeight="500" math="0" shadow="0">
            <root>
                <mxCell id="0"/>
                <mxCell id="1" parent="0"/>
                <mxCell id="11" style="edgeStyle=orthogonalEdgeStyle;html=1;entryX=0.5;entryY=0;entryDx=0;entryDy=0;rounded=1;" parent="1" target="45" edge="1">
                    <mxGeometry relative="1" as="geometry">
                        <mxPoint x="340" y="80" as="sourcePoint"/>
                        <mxPoint x="100" y="180" as="targetPoint"/>
                        <Array as="points">
                            <mxPoint x="340" y="140"/>
                            <mxPoint x="95" y="140"/>
                        </Array>
                    </mxGeometry>
                </mxCell>
                <mxCell id="12" style="edgeStyle=orthogonalEdgeStyle;rounded=1;html=1;entryX=0.5;entryY=0;entryDx=0;entryDy=0;" parent="1" target="47" edge="1">
                    <mxGeometry relative="1" as="geometry">
                        <mxPoint x="340" y="80" as="sourcePoint"/>
                        <mxPoint x="420" y="180" as="targetPoint"/>
                        <Array as="points">
                            <mxPoint x="340" y="140"/>
                            <mxPoint x="435" y="140"/>
                        </Array>
                    </mxGeometry>
                </mxCell>
                <mxCell id="13" style="edgeStyle=orthogonalEdgeStyle;rounded=1;html=1;entryX=0.5;entryY=0;entryDx=0;entryDy=0;" parent="1" target="46" edge="1">
                    <mxGeometry relative="1" as="geometry">
                        <mxPoint x="340" y="80" as="sourcePoint"/>
                        <mxPoint x="260" y="179.9999999999999" as="targetPoint"/>
                        <Array as="points">
                            <mxPoint x="340" y="140"/>
                            <mxPoint x="265" y="140"/>
                        </Array>
                    </mxGeometry>
                </mxCell>
                <mxCell id="14" style="edgeStyle=orthogonalEdgeStyle;rounded=1;html=1;exitX=0.5;exitY=1;exitDx=0;exitDy=0;entryX=0.5;entryY=0;entryDx=0;entryDy=0;" parent="1" source="44" target="48" edge="1">
                    <mxGeometry relative="1" as="geometry">
                        <mxPoint x="340" y="80" as="sourcePoint"/>
                        <mxPoint x="580.0285714285715" y="170" as="targetPoint"/>
                        <Array as="points">
                            <mxPoint x="340" y="140"/>
                            <mxPoint x="605" y="140"/>
                        </Array>
                    </mxGeometry>
                </mxCell>
                <mxCell id="34" style="edgeStyle=none;curved=1;html=1;fontSize=11;startArrow=none;startFill=0;strokeWidth=1;elbow=vertical;exitX=0.5;exitY=1;exitDx=0;exitDy=0;" parent="1" source="48" target="54" edge="1">
                    <mxGeometry relative="1" as="geometry">
                        <mxPoint x="583.4615384615386" y="250" as="sourcePoint"/>
                    </mxGeometry>
                </mxCell>
                <mxCell id="36" style="edgeStyle=orthogonalEdgeStyle;html=1;fontSize=11;startArrow=none;startFill=0;strokeWidth=1;elbow=vertical;exitX=0.5;exitY=1;exitDx=0;exitDy=0;entryX=0.5;entryY=0;entryDx=0;entryDy=0;" parent="1" source="48" target="57" edge="1">
                    <mxGeometry relative="1" as="geometry">
                        <mxPoint x="580.0285714285715" y="250" as="sourcePoint"/>
                        <Array as="points">
                            <mxPoint x="605" y="250"/>
                            <mxPoint x="775" y="250"/>
                        </Array>
                    </mxGeometry>
                </mxCell>
                <mxCell id="21" value="" style="endArrow=none;dashed=1;html=1;rounded=1;" parent="1" edge="1">
                    <mxGeometry width="50" height="50" relative="1" as="geometry">
                        <mxPoint y="340" as="sourcePoint"/>
                        <mxPoint x="880" y="340" as="targetPoint"/>
                    </mxGeometry>
                </mxCell>
                <mxCell id="22" value="&lt;font style=&quot;font-size: 18px;&quot;&gt;Drivers&lt;/font&gt;" style="text;strokeColor=none;fillColor=none;html=1;fontSize=18;fontStyle=1;verticalAlign=middle;align=center;" parent="1" vertex="1">
                    <mxGeometry x="10" y="250" width="100" height="40" as="geometry"/>
                </mxCell>
                <mxCell id="26" value="Hardware" style="text;strokeColor=none;fillColor=none;html=1;fontSize=18;fontStyle=1;verticalAlign=middle;align=center;" parent="1" vertex="1">
                    <mxGeometry x="10" y="350" width="100" height="40" as="geometry"/>
                </mxCell>
                <mxCell id="27" value="" style="endArrow=none;dashed=1;html=1;rounded=1;" parent="1" edge="1">
                    <mxGeometry width="50" height="50" relative="1" as="geometry">
                        <mxPoint y="240" as="sourcePoint"/>
                        <mxPoint x="880" y="240" as="targetPoint"/>
                    </mxGeometry>
                </mxCell>
                <mxCell id="44" value="&lt;span&gt;&lt;font style=&quot;font-size: 18px&quot;&gt;smartNavSys&lt;/font&gt;&lt;/span&gt;" style="rounded=0;whiteSpace=wrap;html=1;fontSize=14;" parent="1" vertex="1">
                    <mxGeometry x="280" y="60" width="120" height="60" as="geometry"/>
                </mxCell>
                <mxCell id="45" value="&lt;span style=&quot;font-size: 19px&quot;&gt;fuzzyControl&lt;/span&gt;" style="rounded=0;whiteSpace=wrap;html=1;fontSize=18;" parent="1" vertex="1">
                    <mxGeometry x="20" y="170" width="150" height="60" as="geometry"/>
                </mxCell>
                <mxCell id="53" style="edgeStyle=none;curved=1;html=1;fontSize=14;startArrow=none;startFill=0;endArrow=classic;endFill=1;strokeWidth=1;" parent="1" source="46" target="49" edge="1">
                    <mxGeometry relative="1" as="geometry"/>
                </mxCell>
                <mxCell id="46" value="&lt;span&gt;distanceSensor&lt;/span&gt;" style="rounded=0;whiteSpace=wrap;html=1;fontSize=18;" parent="1" vertex="1">
                    <mxGeometry x="190" y="170" width="150" height="60" as="geometry"/>
                </mxCell>
                <mxCell id="47" value="&lt;span&gt;imgProc&lt;/span&gt;" style="rounded=0;whiteSpace=wrap;html=1;fontSize=18;" parent="1" vertex="1">
                    <mxGeometry x="360" y="170" width="150" height="60" as="geometry"/>
                </mxCell>
                <mxCell id="48" value="&lt;span&gt;driver&lt;/span&gt;" style="rounded=0;whiteSpace=wrap;html=1;fontSize=18;" parent="1" vertex="1">
                    <mxGeometry x="530" y="170" width="150" height="60" as="geometry"/>
                </mxCell>
                <mxCell id="65" style="edgeStyle=none;curved=1;html=1;fontSize=18;startArrow=none;startFill=0;endArrow=classic;endFill=1;strokeWidth=1;" parent="1" source="49" target="64" edge="1">
                    <mxGeometry relative="1" as="geometry"/>
                </mxCell>
                <mxCell id="49" value="&lt;span style=&quot;font-size: 14px&quot;&gt;driver_&lt;/span&gt;&lt;span style=&quot;font-size: 14px&quot;&gt;MIOgpio_PS&lt;/span&gt;" style="rounded=0;whiteSpace=wrap;html=1;fontSize=18;" parent="1" vertex="1">
                    <mxGeometry x="190" y="270" width="150" height="60" as="geometry"/>
                </mxCell>
                <mxCell id="62" style="edgeStyle=none;curved=1;html=1;entryX=0.5;entryY=0;entryDx=0;entryDy=0;fontSize=18;startArrow=none;startFill=0;endArrow=classic;endFill=1;strokeWidth=1;" parent="1" source="54" target="60" edge="1">
                    <mxGeometry relative="1" as="geometry"/>
                </mxCell>
                <mxCell id="54" value="&lt;span style=&quot;font-size: 14px&quot;&gt;driver_pwm_&lt;/span&gt;&lt;br style=&quot;font-size: 14px&quot;&gt;&lt;span style=&quot;font-size: 14px&quot;&gt;EMIOgpio_PL_2&lt;/span&gt;" style="rounded=0;whiteSpace=wrap;html=1;fontSize=18;" parent="1" vertex="1">
                    <mxGeometry x="530" y="270" width="150" height="60" as="geometry"/>
                </mxCell>
                <mxCell id="63" style="edgeStyle=none;curved=1;html=1;entryX=0.5;entryY=0;entryDx=0;entryDy=0;fontSize=18;startArrow=none;startFill=0;endArrow=classic;endFill=1;strokeWidth=1;" parent="1" source="55" target="61" edge="1">
                    <mxGeometry relative="1" as="geometry"/>
                </mxCell>
                <mxCell id="55" value="&lt;span style=&quot;font-size: 14px&quot;&gt;driver_pwm_&lt;/span&gt;&lt;br style=&quot;font-size: 14px&quot;&gt;&lt;span style=&quot;font-size: 14px&quot;&gt;EMIOgpio_PL_1&lt;/span&gt;" style="rounded=0;whiteSpace=wrap;html=1;fontSize=18;" parent="1" vertex="1">
                    <mxGeometry x="360" y="270" width="150" height="60" as="geometry"/>
                </mxCell>
                <mxCell id="56" value="" style="edgeStyle=orthogonalEdgeStyle;html=1;entryX=0.5;entryY=0;entryDx=0;entryDy=0;fontSize=11;startArrow=none;startFill=0;strokeWidth=1;elbow=vertical;exitX=0.5;exitY=1;exitDx=0;exitDy=0;endArrow=classic;endFill=1;" parent="1" source="48" target="55" edge="1">
                    <mxGeometry relative="1" as="geometry">
                        <mxPoint x="605" y="229.9999999999999" as="sourcePoint"/>
                        <mxPoint x="420" y="339.9999999999999" as="targetPoint"/>
                        <Array as="points">
                            <mxPoint x="605" y="250"/>
                        </Array>
                    </mxGeometry>
                </mxCell>
                <mxCell id="59" style="edgeStyle=none;curved=1;html=1;fontSize=18;startArrow=none;startFill=0;endArrow=classic;endFill=1;strokeWidth=1;" parent="1" source="57" target="58" edge="1">
                    <mxGeometry relative="1" as="geometry"/>
                </mxCell>
                <mxCell id="57" value="&lt;span style=&quot;font-size: 14px&quot;&gt;usrSpace_&lt;br&gt;&lt;/span&gt;&lt;span style=&quot;font-size: 14px&quot;&gt;EMIOgpio_PL&lt;/span&gt;" style="rounded=0;whiteSpace=wrap;html=1;fontSize=18;" parent="1" vertex="1">
                    <mxGeometry x="700" y="270" width="150" height="60" as="geometry"/>
                </mxCell>
                <mxCell id="58" value="&lt;font style=&quot;font-size: 18px&quot;&gt;EMIO_GPIO&lt;/font&gt;" style="rounded=0;whiteSpace=wrap;html=1;fontSize=18;" parent="1" vertex="1">
                    <mxGeometry x="700" y="380" width="150" height="60" as="geometry"/>
                </mxCell>
                <mxCell id="60" value="&lt;font style=&quot;font-size: 18px&quot;&gt;EMIO_GPIO&lt;/font&gt;" style="rounded=0;whiteSpace=wrap;html=1;fontSize=18;" parent="1" vertex="1">
                    <mxGeometry x="530" y="380" width="150" height="60" as="geometry"/>
                </mxCell>
                <mxCell id="61" value="&lt;font style=&quot;font-size: 18px&quot;&gt;EMIO_GPIO&lt;/font&gt;" style="rounded=0;whiteSpace=wrap;html=1;fontSize=18;" parent="1" vertex="1">
                    <mxGeometry x="360" y="380" width="150" height="60" as="geometry"/>
                </mxCell>
                <mxCell id="64" value="&lt;font style=&quot;font-size: 18px&quot;&gt;EMIO_GPIO&lt;/font&gt;" style="rounded=0;whiteSpace=wrap;html=1;fontSize=18;" parent="1" vertex="1">
                    <mxGeometry x="190" y="383.5" width="150" height="60" as="geometry"/>
                </mxCell>
                <mxCell id="92" value="&lt;font style=&quot;font-size: 18px&quot;&gt;Applications&lt;/font&gt;" style="text;strokeColor=none;fillColor=none;html=1;fontSize=18;fontStyle=1;verticalAlign=middle;align=center;" vertex="1" parent="1">
                    <mxGeometry x="10" y="60" width="100" height="40" as="geometry"/>
                </mxCell>
            </root>
        </mxGraphModel>
    </diagram>
</mxfile>